<svg width="224" height="224" viewBox="0 0 224 224" fill="none" xmlns="http://www.w3.org/2000/svg">
<path d="M112 0C50.176 0 0 50.176 0 112C0 173.824 50.176 224 112 224C173.824 224 224 173.824 224 112C224 50.176 173.824 0 112 0ZM112 44.8C133.616 44.8 151.2 62.384 151.2 84C151.2 105.616 133.616 123.2 112 123.2C90.384 123.2 72.8 105.616 72.8 84C72.8 62.384 90.384 44.8 112 44.8ZM112 201.6C89.264 201.6 62.384 192.416 43.232 169.344C62.16 154.56 86.016 145.6 112 145.6C137.984 145.6 161.84 154.56 180.768 169.344C161.616 192.416 134.736 201.6 112 201.6Z" fill="black"/>
</svg>
