<svg width="23" height="15" viewBox="0 0 23 15" fill="none" xmlns="http://www.w3.org/2000/svg">
<path d="M11.5 14.0625C10.4583 14.0625 9.47135 13.9349 8.53906 13.6797C7.61198 13.4297 6.75 13.099 5.95312 12.6875C5.16146 12.2708 4.45052 11.8125 3.82031 11.3125C3.1901 10.8125 2.65104 10.3125 2.20312 9.8125C1.75521 9.30729 1.41146 8.84115 1.17188 8.41406C0.9375 7.98177 0.820312 7.63281 0.820312 7.36719C0.820312 7.10156 0.9375 6.75521 1.17188 6.32812C1.41146 5.89583 1.75521 5.42969 2.20312 4.92969C2.65104 4.42448 3.1901 3.92188 3.82031 3.42188C4.45573 2.92188 5.16927 2.46615 5.96094 2.05469C6.75781 1.63802 7.61979 1.30469 8.54688 1.05469C9.47917 0.799479 10.4635 0.671875 11.5 0.671875C12.5469 0.671875 13.5365 0.799479 14.4688 1.05469C15.4062 1.30469 16.2708 1.63802 17.0625 2.05469C17.8594 2.46615 18.5703 2.92188 19.1953 3.42188C19.8255 3.92188 20.362 4.42448 20.8047 4.92969C21.2474 5.42969 21.5859 5.89583 21.8203 6.32812C22.0547 6.75521 22.1719 7.10156 22.1719 7.36719C22.1719 7.63281 22.0547 7.98177 21.8203 8.41406C21.5859 8.84115 21.2474 9.30729 20.8047 9.8125C20.362 10.3125 19.8255 10.8125 19.1953 11.3125C18.5703 11.8125 17.862 12.2708 17.0703 12.6875C16.2786 13.099 15.4141 13.4297 14.4766 13.6797C13.5443 13.9349 12.5521 14.0625 11.5 14.0625ZM11.5 12.8281C12.3542 12.8281 13.1745 12.7214 13.9609 12.5078C14.7526 12.2943 15.4948 12.013 16.1875 11.6641C16.8802 11.3099 17.5078 10.9245 18.0703 10.5078C18.638 10.0911 19.125 9.67969 19.5312 9.27344C19.9375 8.86198 20.25 8.48698 20.4688 8.14844C20.6927 7.8099 20.8047 7.54948 20.8047 7.36719C20.8047 7.21094 20.6927 6.97135 20.4688 6.64844C20.25 6.32552 19.9375 5.95833 19.5312 5.54688C19.125 5.13021 18.638 4.71094 18.0703 4.28906C17.5078 3.86719 16.8802 3.47656 16.1875 3.11719C15.4948 2.7526 14.7526 2.46094 13.9609 2.24219C13.1745 2.01823 12.3542 1.90625 11.5 1.90625C10.6406 1.90625 9.8151 2.01823 9.02344 2.24219C8.23177 2.46094 7.48958 2.7526 6.79688 3.11719C6.10417 3.47656 5.47656 3.86719 4.91406 4.28906C4.35156 4.71094 3.86458 5.13021 3.45312 5.54688C3.04688 5.95833 2.73438 6.32552 2.51562 6.64844C2.29688 6.97135 2.1875 7.21094 2.1875 7.36719C2.1875 7.54948 2.29688 7.8099 2.51562 8.14844C2.73438 8.48698 3.04688 8.86198 3.45312 9.27344C3.86458 9.67969 4.35156 10.0911 4.91406 10.5078C5.47656 10.9245 6.10417 11.3099 6.79688 11.6641C7.48958 12.013 8.23177 12.2943 9.02344 12.5078C9.8151 12.7214 10.6406 12.8281 11.5 12.8281ZM11.5 11.7422C10.8854 11.7422 10.3125 11.6276 9.78125 11.3984C9.25521 11.1693 8.79167 10.8542 8.39062 10.4531C7.98958 10.0469 7.67448 9.58073 7.44531 9.05469C7.22135 8.52344 7.10677 7.96094 7.10156 7.36719C7.10156 6.75781 7.21354 6.1875 7.4375 5.65625C7.66667 5.125 7.98177 4.66146 8.38281 4.26562C8.78385 3.86458 9.25 3.55208 9.78125 3.32812C10.3125 3.10417 10.8854 2.99219 11.5 2.99219C12.1042 2.99219 12.6719 3.10417 13.2031 3.32812C13.7344 3.55208 14.2005 3.86458 14.6016 4.26562C15.0026 4.66146 15.3151 5.125 15.5391 5.65625C15.7682 6.1875 15.8828 6.75781 15.8828 7.36719C15.8828 7.96094 15.7682 8.52344 15.5391 9.05469C15.3151 9.58073 15.0026 10.0469 14.6016 10.4531C14.2005 10.8542 13.7344 11.1693 13.2031 11.3984C12.6719 11.6276 12.1042 11.7422 11.5 11.7422ZM11.5 8.82031C11.901 8.82031 12.2448 8.67708 12.5312 8.39062C12.8177 8.10417 12.9609 7.76302 12.9609 7.36719C12.9609 6.96615 12.8177 6.625 12.5312 6.34375C12.2448 6.05729 11.901 5.91406 11.5 5.91406C11.0938 5.91406 10.7474 6.05729 10.4609 6.34375C10.1745 6.625 10.0312 6.96615 10.0312 7.36719C10.0312 7.76302 10.1745 8.10417 10.4609 8.39062C10.7474 8.67708 11.0938 8.82031 11.5 8.82031Z" fill="black"/>
</svg>
