<svg width="23" height="14" viewBox="0 0 23 14" fill="none" xmlns="http://www.w3.org/2000/svg">
<path d="M11.5 14.0078C10.4688 14.0078 9.49219 13.8828 8.57031 13.6328C7.64844 13.3828 6.79427 13.0521 6.00781 12.6406C5.22135 12.2292 4.51302 11.776 3.88281 11.2812C3.25781 10.7865 2.72135 10.2891 2.27344 9.78906C1.83073 9.28906 1.49219 8.82812 1.25781 8.40625C1.02344 7.97917 0.90625 7.63281 0.90625 7.36719C0.90625 7.10156 1.02344 6.75781 1.25781 6.33594C1.49219 5.90885 1.83073 5.44531 2.27344 4.94531C2.72135 4.44531 3.25781 3.94792 3.88281 3.45312C4.51302 2.95833 5.22135 2.50521 6.00781 2.09375C6.79427 1.68229 7.64844 1.35156 8.57031 1.10156C9.49219 0.851562 10.4688 0.726562 11.5 0.726562C12.5417 0.726562 13.5234 0.851562 14.4453 1.10156C15.3724 1.35156 16.2292 1.68229 17.0156 2.09375C17.8021 2.50521 18.5078 2.95833 19.1328 3.45312C19.7578 3.94792 20.2891 4.44531 20.7266 4.94531C21.1693 5.44531 21.5052 5.90885 21.7344 6.33594C21.9688 6.75781 22.0859 7.10156 22.0859 7.36719C22.0859 7.63281 21.9688 7.97917 21.7344 8.40625C21.5052 8.82812 21.1693 9.28906 20.7266 9.78906C20.2891 10.2891 19.7578 10.7865 19.1328 11.2812C18.513 11.776 17.8099 12.2292 17.0234 12.6406C16.237 13.0521 15.3802 13.3828 14.4531 13.6328C13.526 13.8828 12.5417 14.0078 11.5 14.0078ZM11.5 11.7188C12.1042 11.7188 12.6693 11.6068 13.1953 11.3828C13.7266 11.1536 14.1901 10.8385 14.5859 10.4375C14.987 10.0312 15.2995 9.56771 15.5234 9.04688C15.7526 8.52083 15.8672 7.96094 15.8672 7.36719C15.8672 6.75781 15.7526 6.1901 15.5234 5.66406C15.2995 5.13802 14.987 4.67708 14.5859 4.28125C14.1901 3.88021 13.7266 3.57031 13.1953 3.35156C12.6693 3.1276 12.1042 3.01562 11.5 3.01562C10.8906 3.01562 10.3203 3.1276 9.78906 3.35156C9.25781 3.57031 8.79167 3.88021 8.39062 4.28125C7.99479 4.67708 7.68229 5.13802 7.45312 5.66406C7.22917 6.1901 7.11979 6.75781 7.125 7.36719C7.13021 7.96094 7.24479 8.52083 7.46875 9.04688C7.69271 9.56771 8.0026 10.0312 8.39844 10.4375C8.79948 10.8385 9.26302 11.1536 9.78906 11.3828C10.3203 11.6068 10.8906 11.7188 11.5 11.7188ZM11.5 8.9375C11.0625 8.9375 10.6875 8.78385 10.375 8.47656C10.0625 8.16406 9.90625 7.79427 9.90625 7.36719C9.90625 6.9349 10.0625 6.5651 10.375 6.25781C10.6875 5.94531 11.0625 5.78906 11.5 5.78906C11.9323 5.78906 12.3047 5.94531 12.6172 6.25781C12.9297 6.5651 13.0859 6.9349 13.0859 7.36719C13.0859 7.79427 12.9297 8.16406 12.6172 8.47656C12.3047 8.78385 11.9323 8.9375 11.5 8.9375Z" fill="black"/>
</svg>
