<svg width="16" height="16" viewBox="0 0 16 16" fill="none" xmlns="http://www.w3.org/2000/svg">
<path d="M8 15.1826C6.97949 15.1826 6.01758 14.9873 5.11426 14.5967C4.21582 14.2061 3.42236 13.6665 2.73389 12.978C2.04541 12.2896 1.50586 11.4961 1.11523 10.5977C0.724609 9.69434 0.529297 8.73242 0.529297 7.71191C0.529297 6.69141 0.724609 5.73193 1.11523 4.8335C1.50586 3.93018 2.04297 3.13428 2.72656 2.4458C3.41504 1.75732 4.2085 1.21777 5.10693 0.827148C6.01025 0.436523 6.97217 0.241211 7.99268 0.241211C9.01318 0.241211 9.9751 0.436523 10.8784 0.827148C11.7817 1.21777 12.5776 1.75732 13.2661 2.4458C13.9546 3.13428 14.4941 3.93018 14.8848 4.8335C15.2754 5.73193 15.4707 6.69141 15.4707 7.71191C15.4707 8.73242 15.2754 9.69434 14.8848 10.5977C14.4941 11.4961 13.9546 12.2896 13.2661 12.978C12.5776 13.6665 11.7817 14.2061 10.8784 14.5967C9.97998 14.9873 9.02051 15.1826 8 15.1826ZM8 13.9375C8.86426 13.9375 9.67236 13.7764 10.4243 13.4541C11.1763 13.1318 11.8379 12.6875 12.4092 12.1211C12.9805 11.5498 13.4248 10.8882 13.7422 10.1362C14.0645 9.38428 14.2256 8.57617 14.2256 7.71191C14.2256 6.84766 14.0645 6.03955 13.7422 5.2876C13.4199 4.53564 12.9731 3.87402 12.4019 3.30273C11.8354 2.73145 11.1738 2.28711 10.417 1.96973C9.66504 1.64746 8.85693 1.48633 7.99268 1.48633C7.12842 1.48633 6.32031 1.64746 5.56836 1.96973C4.81641 2.28711 4.15723 2.73145 3.59082 3.30273C3.02441 3.87402 2.58008 4.53564 2.25781 5.2876C1.94043 6.03955 1.78174 6.84766 1.78174 7.71191C1.78174 8.57617 1.94043 9.38428 2.25781 10.1362C2.58008 10.8882 3.02441 11.5498 3.59082 12.1211C4.16211 12.6875 4.82373 13.1318 5.57568 13.4541C6.32764 13.7764 7.13574 13.9375 8 13.9375ZM5.64893 10.8833L4.63818 11.2642C4.56006 11.2935 4.48682 11.2764 4.41846 11.2129C4.35498 11.1494 4.34033 11.0737 4.37451 10.9858L4.79199 10.0117L9.58936 5.229L10.4536 6.09326L5.64893 10.8833ZM10.8931 5.66113L10.0288 4.78955L10.5635 4.26221C10.6807 4.14502 10.8027 4.08154 10.9297 4.07178C11.0615 4.06201 11.1812 4.11328 11.2886 4.22559L11.457 4.39404C11.5693 4.50146 11.6206 4.62109 11.6108 4.75293C11.6011 4.87988 11.5376 5.00439 11.4204 5.12646L10.8931 5.66113Z" fill="black"/>
</svg>
