<svg width="16" height="17" viewBox="0 0 16 17" fill="none" xmlns="http://www.w3.org/2000/svg">
<path d="M4.7041 3.96973V2.61475C4.7041 2.06299 4.87256 1.62842 5.20947 1.31104C5.55127 0.98877 6.01514 0.827637 6.60107 0.827637H9.37695C9.96289 0.827637 10.4243 0.98877 10.7612 1.31104C11.103 1.62842 11.2739 2.06299 11.2739 2.61475V3.96973H9.95557V2.68799C9.95557 2.50244 9.89697 2.35352 9.77979 2.24121C9.6626 2.12891 9.50391 2.07275 9.30371 2.07275H6.68164C6.48145 2.07275 6.32275 2.12891 6.20557 2.24121C6.08838 2.35352 6.02979 2.50244 6.02979 2.68799V3.96973H4.7041ZM1.45215 4.84131C1.30566 4.84131 1.17627 4.7876 1.06396 4.68018C0.956543 4.56787 0.902832 4.43604 0.902832 4.28467C0.902832 4.13818 0.956543 4.01123 1.06396 3.90381C1.17627 3.7915 1.30566 3.73535 1.45215 3.73535H14.5405C14.6919 3.73535 14.8213 3.78906 14.9287 3.89648C15.0361 4.00391 15.0898 4.1333 15.0898 4.28467C15.0898 4.43604 15.0361 4.56787 14.9287 4.68018C14.8213 4.7876 14.6919 4.84131 14.5405 4.84131H1.45215ZM13.4492 4.6875L12.9731 15.542C12.9536 15.9961 12.812 16.3452 12.5483 16.5894C12.2896 16.8335 11.9331 16.9556 11.479 16.9556H4.51367C4.06445 16.9556 3.70801 16.8335 3.44434 16.5894C3.18555 16.3452 3.04639 15.9961 3.02686 15.542L2.55078 4.6875H13.4492ZM5.67822 14.8608C5.81982 14.8608 5.93213 14.8218 6.01514 14.7437C6.09814 14.6606 6.13721 14.5557 6.13232 14.4287L5.9126 6.44531C5.90771 6.31836 5.86133 6.21582 5.77344 6.1377C5.69043 6.05957 5.58545 6.02051 5.4585 6.02051C5.31689 6.02051 5.20459 6.06201 5.12158 6.14502C5.03857 6.22314 4.99707 6.32568 4.99707 6.45264L5.22412 14.4287C5.22412 14.5605 5.26562 14.6655 5.34863 14.7437C5.43652 14.8218 5.54639 14.8608 5.67822 14.8608ZM8 14.8608C8.13672 14.8608 8.24902 14.8218 8.33691 14.7437C8.4248 14.6606 8.46875 14.5557 8.46875 14.4287V6.45264C8.46875 6.32568 8.4248 6.22314 8.33691 6.14502C8.24902 6.06201 8.13672 6.02051 8 6.02051C7.8584 6.02051 7.74365 6.06201 7.65576 6.14502C7.56787 6.22314 7.52393 6.32568 7.52393 6.45264V14.4287C7.52393 14.5557 7.56787 14.6606 7.65576 14.7437C7.74365 14.8218 7.8584 14.8608 8 14.8608ZM10.3145 14.8608C10.4463 14.8608 10.5537 14.8218 10.6367 14.7437C10.7246 14.6655 10.7686 14.5605 10.7686 14.4287L10.9956 6.45264C10.9956 6.32568 10.9541 6.22314 10.8711 6.14502C10.7881 6.06201 10.6758 6.02051 10.5342 6.02051C10.4072 6.02051 10.2998 6.05957 10.2119 6.1377C10.1289 6.21582 10.085 6.3208 10.0801 6.45264L9.86035 14.4287C9.85547 14.5557 9.89453 14.6606 9.97754 14.7437C10.0605 14.8218 10.1729 14.8608 10.3145 14.8608Z" fill="black"/>
</svg>
