<svg width="45" height="57" viewBox="0 0 45 57" fill="none" xmlns="http://www.w3.org/2000/svg">
<path d="M22.093 34.907C28.1962 34.907 33.1395 29.9637 33.1395 23.8605C33.1395 17.7573 28.1962 12.814 22.093 12.814C15.9898 12.814 11.0465 17.7573 11.0465 23.8605C11.0465 29.9637 15.9898 34.907 22.093 34.907ZM22.093 40.4302C14.7195 40.4302 0 44.1308 0 51.4768V57H44.186V51.4768C44.186 44.1308 29.4666 40.4302 22.093 40.4302Z" fill="#333333"/>
<path d="M11.4884 0C9.54419 0 7.97117 1.5907 7.97117 3.53488L7.95349 31.814C7.95349 33.7581 9.52651 35.3488 11.4707 35.3488H32.6977C34.6419 35.3488 36.2326 33.7581 36.2326 31.814V10.6047L25.6279 0H11.4884ZM23.8605 12.3721V2.65116L33.5814 12.3721H23.8605Z" fill="#333333"/>
</svg>
